<?xml version="1.0" encoding="utf-8"?>
<!-- Generator: Adobe Illustrator 21.0.0, SVG Export Plug-In . SVG Version: 6.00 Build 0)  -->
<svg version="1.1" id="图层_1" xmlns="http://www.w3.org/2000/svg" xmlns:xlink="http://www.w3.org/1999/xlink" x="0px" y="0px"
	 viewBox="0 0 937.6 759.8" style="enable-background:new 0 0 937.6 759.8;" xml:space="preserve">
<style type="text/css">
	.st0{fill:none;stroke:#000000;stroke-miterlimit:10;}
	.st1{fill:none;stroke:#000000;stroke-width:5;stroke-miterlimit:10;}
	.st2{font-family:'TimesNewRomanPS-ItalicMT';}
	.st3{font-size:60px;}
	.st4{font-family:'TimesNewRomanPSMT';}
	.st5{font-size:60.2425px;}
</style>
<title>one-mirror</title>
<path class="st0" d="M77.2,532.4"/>
<path class="st0" d="M683.8,532.4"/>
<line class="st1" x1="0" y1="525.9" x2="865" y2="524.5"/>
<path class="st1" d="M732.7,636"/>
<path class="st1" d="M-5,394.8"/>
<line class="st1" x1="35.6" y1="526.6" x2="5.7" y2="543.8"/>
<line class="st1" x1="69.7" y1="526" x2="39.8" y2="543.3"/>
<line class="st1" x1="100.5" y1="526.4" x2="70.6" y2="543.7"/>
<line class="st1" x1="133.3" y1="526.9" x2="103.4" y2="544.2"/>
<line class="st1" x1="167.4" y1="526.3" x2="137.5" y2="543.5"/>
<line class="st1" x1="198.2" y1="526.7" x2="168.3" y2="544"/>
<path class="st0" d="M273.2,532.8"/>
<line class="st1" x1="231.6" y1="527" x2="201.7" y2="544.3"/>
<line class="st1" x1="265.7" y1="526.5" x2="235.8" y2="543.7"/>
<line class="st1" x1="296.5" y1="526.8" x2="266.6" y2="544.1"/>
<line class="st1" x1="329.3" y1="526.3" x2="299.5" y2="543.6"/>
<line class="st1" x1="363.4" y1="525.8" x2="333.5" y2="543"/>
<line class="st1" x1="394.2" y1="526.2" x2="364.3" y2="543.4"/>
<path class="st0" d="M466.5,533"/>
<line class="st1" x1="424.9" y1="525.3" x2="395" y2="542.5"/>
<line class="st1" x1="458.9" y1="526.7" x2="429" y2="543.9"/>
<line class="st1" x1="489.3" y1="527.3" x2="459.4" y2="544.5"/>
<line class="st1" x1="523.3" y1="526.4" x2="493.5" y2="543.6"/>
<line class="st1" x1="556.7" y1="526" x2="526.8" y2="543.2"/>
<line class="st1" x1="587.5" y1="526.3" x2="557.6" y2="543.6"/>
<path class="st0" d="M662.5,531.5"/>
<line class="st1" x1="620.9" y1="525.7" x2="591" y2="543"/>
<line class="st1" x1="655" y1="525.1" x2="625.1" y2="542.3"/>
<line class="st1" x1="685.8" y1="525.5" x2="655.9" y2="542.8"/>
<line class="st1" x1="718.6" y1="525" x2="688.7" y2="542.3"/>
<line class="st1" x1="752.7" y1="526.4" x2="722.8" y2="543.7"/>
<line class="st1" x1="783.5" y1="525.8" x2="753.6" y2="543.1"/>
<line class="st1" x1="817.3" y1="525.8" x2="787.4" y2="543.1"/>
<line class="st1" x1="851.4" y1="526" x2="821.5" y2="542.5"/>
<path class="st1" d="M852.3,543.9"/>
<path class="st1" d="M882.2,527.4"/>
<path class="st0" d="M90.6,412.7"/>
<path class="st0" d="M666.1,604.3"/>
<line class="st1" x1="19.4" y1="382.1" x2="840.5" y2="654.1"/>
<line class="st1" x1="52.9" y1="394" x2="19.1" y2="401"/>
<line class="st1" x1="85.4" y1="404.2" x2="51.6" y2="411.1"/>
<line class="st1" x1="114.5" y1="414.3" x2="80.7" y2="421.3"/>
<line class="st1" x1="145.5" y1="425.2" x2="111.7" y2="432.1"/>
<line class="st1" x1="178.1" y1="435.4" x2="144.3" y2="442.3"/>
<line class="st1" x1="207.2" y1="445.5" x2="173.4" y2="452.4"/>
<path class="st0" d="M276.4,475"/>
<line class="st1" x1="238.8" y1="456.4" x2="204.9" y2="463.3"/>
<line class="st1" x1="271.3" y1="466.6" x2="237.5" y2="473.5"/>
<line class="st1" x1="300.4" y1="476.7" x2="266.6" y2="483.6"/>
<line class="st1" x1="331.7" y1="486.6" x2="297.9" y2="493.5"/>
<line class="st1" x1="364.2" y1="496.8" x2="330.4" y2="503.7"/>
<line class="st1" x1="393.3" y1="506.9" x2="359.5" y2="513.8"/>
<path class="st0" d="M459.7,536.3"/>
<line class="st1" x1="422.7" y1="515.7" x2="388.9" y2="522.7"/>
<line class="st1" x1="454.6" y1="527.8" x2="420.8" y2="534.8"/>
<line class="st1" x1="484.2" y1="537" x2="450.4" y2="544"/>
<line class="st1" x1="515.7" y1="547.9" x2="481.9" y2="554.8"/>
<line class="st1" x1="547.5" y1="558" x2="513.7" y2="565"/>
<line class="st1" x1="576.6" y1="568.2" x2="542.8" y2="575.1"/>
<path class="st0" d="M646.2,596.7"/>
<line class="st1" x1="608.5" y1="578.1" x2="574.7" y2="585"/>
<line class="st1" x1="641" y1="588.3" x2="607.2" y2="595.2"/>
<line class="st1" x1="670.2" y1="598.4" x2="636.3" y2="605.3"/>
<line class="st1" x1="701.5" y1="608.3" x2="667.7" y2="615.2"/>
<line class="st1" x1="733.4" y1="620.4" x2="699.5" y2="627.3"/>
<line class="st1" x1="762.8" y1="629.6" x2="729" y2="636.5"/>
<line class="st1" x1="794.8" y1="640.2" x2="761" y2="647.2"/>
<line class="st1" x1="827.1" y1="651.2" x2="793.5" y2="657.4"/>
<path class="st1" d="M822.3,668.4"/>
<path class="st1" d="M855.9,662.3"/>
<line class="st1" x1="454.6" y1="527.8" x2="454.6" y2="40.4"/>
<line class="st1" x1="127" y1="133.4" x2="454.6" y2="527.8"/>
<line class="st1" x1="783" y1="130.4" x2="454.6" y2="527.8"/>
<line class="st1" x1="455.8" y1="527.2" x2="616.5" y2="63.6"/>
<line class="st1" x1="937" y1="397.5" x2="455.9" y2="526.8"/>
<path class="st1" d="M306.7,523.6c-7.3-15.8,0.2-34.8,16.8-42.5"/>
<path class="st1" d="M454.6,405.6c13.1-9.8,31.9-6.7,42.1,7"/>
<path class="st1" d="M591.6,490.3c0-35.1-24.8-63.5-55.4-63.5"/>
<polygon points="256.3,291.6 271.3,309.6 275.1,314.3 266.6,316.8 288.9,328.4 281.7,304.3 277.6,312.2 273.7,307.6 258.7,289.5 "/>
<polygon points="610.5,341.6 631,316.8 634.9,312.1 639,320 646.2,296 623.9,307.6 632.4,310.1 628.6,314.8 608.1,339.6 "/>
<polygon points="569,439.7 570.4,441.8 573.7,446.8 565,448.4 585.9,462.3 581.2,437.6 576.3,445 573,440 571.7,438 "/>
<polygon points="463.7,401.6 464.6,401.8 470.5,402.9 465.5,410.3 490.1,405 469.2,391.1 471.1,399.8 465.2,398.7 464.3,398.5 "/>
<polygon points="306.4,518.3 306.5,517.5 307,511.5 314.9,515.8 307.4,491.8 295.4,513.9 303.9,511.2 303.3,517.2 303.2,518 "/>
<text transform="matrix(1 0 0 1 246.85 516.21)" class="st2 st3">α</text>
<text transform="matrix(0.9362 0.3514 -0.3514 0.9362 465.8299 374.0599)" class="st2 st3">α</text>
<text transform="matrix(0.5478 0.8366 -0.8366 0.5478 590.6501 409.0699)" class="st4 st5">2</text>
<text transform="matrix(0.5478 0.8366 -0.8366 0.5478 607.1501 434.2697)" class="st2 st5">α</text>
<text transform="matrix(1 0 0 1 401.08 49.86)" class="st2 st3">N</text>
</svg>
