<?xml version="1.0" encoding="utf-8"?>
<!-- Generator: Adobe Illustrator 21.0.0, SVG Export Plug-In . SVG Version: 6.00 Build 0)  -->
<svg version="1.1" id="图层_1" xmlns="http://www.w3.org/2000/svg" xmlns:xlink="http://www.w3.org/1999/xlink" x="0px" y="0px"
	 viewBox="0 0 902.7 791.8" style="enable-background:new 0 0 902.7 791.8;" xml:space="preserve">
<style type="text/css">
	.st0{fill:none;stroke:#000000;stroke-width:5;stroke-miterlimit:10;}
	.st1{font-family:'TimesNewRomanPS-ItalicMT';}
	.st2{font-size:60px;}
	.st3{font-size:36px;}
	.st4{fill:none;stroke:#000000;stroke-miterlimit:10;}
</style>
<title>two-mirror</title>
<path class="st0" d="M771.5,890.5"/>
<line class="st0" x1="387.2" y1="638.1" x2="223.6" y2="0.6"/>
<line class="st0" x1="721.8" y1="399.7" x2="384.5" y2="639.7"/>
<line class="st0" x1="353.1" y1="734.3" x2="441.1" y2="489.5"/>
<line class="st0" x1="721.8" y1="399.7" x2="134.8" y2="33"/>
<path class="st0" d="M669.9,739.2c2.4-28.1,24.8-46.1,50.1-38.9"/>
<path class="st0" d="M297.6,133c0-35.1-24.8-63.5-55.4-63.5"/>
<polygon points="518.4,545.1 551.7,522.2 553.5,530.9 567,509.8 542.4,514.8 549.9,519.6 516.6,542.4 "/>
<polygon points="275,82.4 276.4,84.4 279.7,89.5 271,91.1 291.9,105 287.3,80.3 282.4,87.7 279,82.7 277.7,80.7 "/>
<polygon points="394.9,193.6 375,181.2 369.9,178.1 377.2,173 352.4,169 366.9,189.5 368.3,180.7 373.4,183.9 393.2,196.3 "/>
<text transform="matrix(1 0 0 1 300.09 77.23)" class="st1 st2">β</text>
<text transform="matrix(1 0 0 1 373.23 544.9)" class="st1 st2">I</text>
<text transform="matrix(1 0 0 1 393.21 544.9)" class="st1 st3">1</text>
<path class="st4" d="M727.7,731.9"/>
<path class="st4" d="M727.7,239.2"/>
<line class="st0" x1="721.7" y1="755.6" x2="719.9" y2="58"/>
<line class="st0" x1="722.1" y1="724.8" x2="739.3" y2="754.7"/>
<path class="st4" d="M728.2,649.8"/>
<line class="st0" x1="722.4" y1="691.4" x2="739.7" y2="721.3"/>
<line class="st0" x1="721.8" y1="657.3" x2="739.1" y2="687.2"/>
<line class="st0" x1="722.2" y1="626.5" x2="739.5" y2="656.4"/>
<line class="st0" x1="721.7" y1="593.7" x2="739" y2="623.6"/>
<line class="st0" x1="721.1" y1="559.6" x2="738.4" y2="589.5"/>
<line class="st0" x1="721.5" y1="528.8" x2="738.8" y2="558.7"/>
<path class="st4" d="M728.4,456.6"/>
<line class="st0" x1="720.6" y1="498.2" x2="737.9" y2="528.1"/>
<line class="st0" x1="722" y1="464.1" x2="739.3" y2="494"/>
<line class="st0" x1="721.7" y1="433.7" x2="738.9" y2="463.6"/>
<line class="st0" x1="721.8" y1="399.7" x2="739" y2="429.6"/>
<line class="st0" x1="721.3" y1="366.4" x2="738.6" y2="396.3"/>
<line class="st0" x1="721.7" y1="335.6" x2="739" y2="365.5"/>
<path class="st4" d="M726.9,260.5"/>
<line class="st0" x1="721.1" y1="302.1" x2="738.3" y2="332"/>
<line class="st0" x1="720.5" y1="268.1" x2="737.7" y2="298"/>
<line class="st0" x1="720.9" y1="237.2" x2="738.1" y2="267.1"/>
<line class="st0" x1="720.4" y1="204.4" x2="737.6" y2="234.3"/>
<line class="st0" x1="720.8" y1="170.3" x2="738" y2="200.2"/>
<line class="st0" x1="721.2" y1="139.5" x2="738.4" y2="169.4"/>
<line class="st0" x1="721.2" y1="105.8" x2="738.4" y2="135.6"/>
<line class="st0" x1="721.4" y1="71.7" x2="737.8" y2="101.6"/>
<path class="st0" d="M739.2,70.8"/>
<path class="st0" d="M798.8-98.1"/>
<path class="st4" d="M731.7,463.3"/>
<path class="st4" d="M548.7,703"/>
<line class="st0" x1="63.7" y1="525.7" x2="722.2" y2="755.8"/>
<line class="st0" x1="92.6" y1="536.3" x2="58.7" y2="542.6"/>
<path class="st4" d="M161.3,567"/>
<line class="st0" x1="124" y1="547.7" x2="90.1" y2="554.1"/>
<line class="st0" x1="156.3" y1="558.5" x2="122.4" y2="564.8"/>
<line class="st0" x1="185.3" y1="569.1" x2="151.3" y2="575.4"/>
<line class="st0" x1="216.4" y1="579.5" x2="182.5" y2="585.9"/>
<line class="st0" x1="248.8" y1="590.3" x2="214.8" y2="596.6"/>
<line class="st0" x1="277.7" y1="600.9" x2="243.8" y2="607.3"/>
<path class="st4" d="M343.5,631.4"/>
<line class="st0" x1="306.9" y1="610.2" x2="272.9" y2="616.6"/>
<line class="st0" x1="338.5" y1="622.9" x2="304.6" y2="629.2"/>
<line class="st0" x1="367.3" y1="632.6" x2="333.4" y2="639"/>
<line class="st0" x1="399.4" y1="644" x2="365.5" y2="650.4"/>
<line class="st0" x1="431" y1="654.7" x2="397" y2="661"/>
<line class="st0" x1="459.9" y1="665.3" x2="426" y2="671.7"/>
<path class="st4" d="M528.9,695.1"/>
<line class="st0" x1="491.6" y1="675.8" x2="457.7" y2="682.1"/>
<line class="st0" x1="524" y1="686.5" x2="490" y2="692.9"/>
<line class="st0" x1="552.9" y1="697.2" x2="519" y2="703.5"/>
<line class="st0" x1="584" y1="707.6" x2="550.1" y2="714"/>
<line class="st0" x1="616" y1="719.3" x2="582.1" y2="725.7"/>
<line class="st0" x1="645" y1="729.9" x2="611" y2="736.3"/>
<line class="st0" x1="676.8" y1="741.1" x2="642.9" y2="747.5"/>
<line class="st0" x1="708.9" y1="752.6" x2="675.2" y2="758.2"/>
<path class="st4" d="M336.1,632.2"/>
<line class="st0" x1="814.9" y1="400.1" x2="561.7" y2="400.1"/>
<polygon points="294.5,283.4 301.1,309 302.6,314.9 293.8,313.5 309,333.5 312.8,308.7 305.7,314.1 304.2,308.2 297.6,282.6 "/>
<text transform="matrix(1 0 0 1 655.25 686.6)" class="st1 st2">α</text>
<path class="st0" d="M373.1,583.9c10.9-11.8,26.9-12.4,35.4-0.7"/>
<path class="st0" d="M670.4,435.7c-12.5-10.1-14.2-26-3.1-35.2"/>
<text transform="matrix(1 0 0 1 608.88 446.64)" class="st1 st2">I</text>
<text transform="matrix(1 0 0 1 628.86 446.64)" class="st1 st3">2</text>
<text transform="matrix(1 0 0 1 0 520.94)" class="st1 st2">M</text>
<text transform="matrix(1 0 0 1 49.98 520.94)" class="st1 st3">1</text>
<text transform="matrix(1 0 0 1 288.07 773.44)" class="st1 st2">N</text>
<text transform="matrix(1 0 0 1 328.09 773.44)" class="st1 st3">1</text>
<text transform="matrix(1 0 0 1 726.87 55.95)" class="st1 st2">M</text>
<text transform="matrix(1 0 0 1 776.85 55.95)" class="st1 st3">2</text>
<text transform="matrix(1 0 0 1 820.97 432.77)" class="st1 st2">N</text>
<text transform="matrix(1 0 0 1 860.99 432.77)" class="st1 st3">2</text>
</svg>
